# xmcd
#
# Track frame offsets: 
#        150
#        674
#        21007
#        38029
#        59402
#        78173
#        96211
#        111633
#        130435
#        149196
#        164771
#        178867
#        197372
#        214726
#        232816
#        251029
#        265885
#        286063
#        303181
#        319994
#
# Disc length: 4425 seconds
#
# Revision: 0
# Processed by: cddbd v1.5.2PL0 Copyright (c) Steve Scherf et al.
# Submitted via: ExactAudioCopy v0.99pb4
#
DISCID=23114714
DTITLE=Various Artist - prevue promo 1046A-1
DYEAR=2000
DGENRE=pop
TTITLE0=blank - data
TTITLE1=Carly Simon - So Many Stars 
TTITLE2=Diana Krall  /Whv Should I Care?
TTITLE3=Laura Love - I Am Going To Miss You 
TTITLE4=Sister Seven - The Only Thing That's Real 
TTITLE5=Juliana Hatfield -  Don't Rush Me 
TTITLE6=Juliana Hatfield - Somebodv Is Waiting For Me
TTITLE7=Merrie Amsterburg - Design
TTITLE8=Dwayne Wiggins - Eyes Never Lie
TTITLE9=R-Angels - Left To Right 
TTITLE10=Trina - Pull Over
TTITLE11=Next - Wifey 
TTITLE12=Kandi - Don't Think I'm Not 
TTITLE13=Kandi - Don't Think I'm Not(ear kandi remix) 
TTITLE14=Tamar - Money Can't Buy Me Love 
TTITLE15=Mest - What's The Dillio? 
TTITLE16=8 Stops 7  - QuestIon Everything 
TTITLE17=Korn - Somebody Someone 
TTITLE18=Boiler Room - Do It Again
TTITLE19=Leftv - Girls 
EXTD=
EXTT0=
EXTT1=
EXTT2=
EXTT3=
EXTT4=
EXTT5=
EXTT6=
EXTT7=
EXTT8=
EXTT9=
EXTT10=
EXTT11=
EXTT12=
EXTT13=
EXTT14=
EXTT15=
EXTT16=
EXTT17=
EXTT18=
EXTT19=
PLAYORDER=
